<svg xmlns="http://www.w3.org/2000/svg" width="16.629" height="14.102" viewBox="0 0 16.629 14.102">
  <defs>
    <style>
      .cls-1 {
        stroke-width: 0.2px;
        opacity: 0.65;
      }
    </style>
  </defs>
  <path id="会员" class="cls-1" d="M20.915,91.344H11.527a.717.717,0,0,1-.787-.609c-.223-.771-.433-1.555-.656-2.326l-.669-2.353c-.092-.325-.184-.649-.275-.987l-.013-.027a1.364,1.364,0,0,1-.97-.717,1.338,1.338,0,0,1-.1-.257c-.013-.027-.013-.054-.026-.081L8,83.933v-.5l.079-.216a1.381,1.381,0,0,1,1.219-.96H9.39a1.366,1.366,0,0,1,1.206.771,1.429,1.429,0,0,1-.013,1.285c.21.135.42.27.642.406.393.243.787.5,1.18.744l.013.014c.236.149.472.3.695.446.721-1.42,1.469-2.826,2.229-4.246a1.439,1.439,0,0,1-.079-2.083,1.372,1.372,0,0,1,2.308,1.163,1.648,1.648,0,0,1-.5.906c.144.284.3.568.459.852l1.809,3.408c.446-.284.9-.568,1.351-.852.393-.243.787-.487,1.167-.744a1.41,1.41,0,0,1-.157-.568,1.391,1.391,0,0,1,1.115-1.46,1.41,1.41,0,0,1,.249-.027,1.355,1.355,0,0,1,1.3,1c.013.027.013.041.026.068l.039.108v.473l-.013.054A1.4,1.4,0,0,1,23.3,85.055l-1.613,5.693a.72.72,0,0,1-.774.6Zm-9.427-.784h9.454c0-.014,0-.014.013-.027l1.613-5.72a.045.045,0,0,0-.026.014l-.052.041c-.459.3-.931.581-1.39.879s-.931.581-1.39.879a.761.761,0,0,1-.433.149.674.674,0,0,1-.577-.433l-1.836-3.448c-.21-.379-.406-.771-.616-1.149l-.026-.054-.026.054c-.839,1.569-1.665,3.124-2.491,4.679a.611.611,0,0,1-.892.243c-.275-.162-.551-.338-.813-.514l-.013-.014c-.393-.243-.787-.5-1.167-.744-.315-.2-.629-.392-.944-.6l.013.054c.092.325.184.663.275.987l.669,2.353c.223.771.433,1.555.656,2.326-.013.014,0,.027,0,.041Zm11.578-7.505a.352.352,0,0,0-.118.014.613.613,0,0,0-.485.636.674.674,0,0,0,.21.433l.144.149H23a.624.624,0,0,0,.656-.5v-.216a.2.2,0,0,1-.026-.081A.593.593,0,0,0,23.066,83.054ZM8.76,83.771c0,.014,0,.014.013.027.026.054.039.122.066.162a.6.6,0,0,0,.59.338h.21l.092-.108a.866.866,0,0,1,.1-.122.612.612,0,0,0,.079-.663.588.588,0,0,0-.551-.338.582.582,0,0,0-.538.419l-.026.095A.31.31,0,0,0,8.76,83.771Zm7.448-3.786a.614.614,0,0,0-.6.636.638.638,0,0,0,.406.568l.223.108.118-.081a.957.957,0,0,0,.446-.6.5.5,0,0,0-.144-.419A.536.536,0,0,0,16.208,79.984Zm4.9,13.117H11.317a.387.387,0,0,1-.38-.392v-.027a.387.387,0,0,1,.38-.392h9.795a.387.387,0,0,1,.38.392v.027A.387.387,0,0,1,21.112,93.1Z" transform="translate(-7.9 -79.1)"/>
</svg>
